<svg xmlns="http://www.w3.org/2000/svg" viewBox="0 0 64 64" fill="none">
  <!-- Left hemisphere -->
  <path d="M32 12 C20 12, 12 20, 12 32 C12 44, 20 52, 32 52" stroke="#60A5FA" stroke-width="3" fill="none" stroke-linecap="round"/>

  <!-- Right hemisphere -->
  <path d="M32 12 C44 12, 52 20, 52 32 C52 44, 44 52, 32 52" stroke="#60A5FA" stroke-width="3" fill="none" stroke-linecap="round"/>

  <!-- Left brain folds -->
  <path d="M18 24 Q22 22, 26 24" stroke="#60A5FA" stroke-width="2" fill="none" stroke-linecap="round"/>
  <path d="M16 32 Q20 30, 24 32" stroke="#60A5FA" stroke-width="2" fill="none" stroke-linecap="round"/>
  <path d="M18 40 Q22 38, 26 40" stroke="#60A5FA" stroke-width="2" fill="none" stroke-linecap="round"/>

  <!-- Right brain folds -->
  <path d="M38 24 Q42 22, 46 24" stroke="#60A5FA" stroke-width="2" fill="none" stroke-linecap="round"/>
  <path d="M40 32 Q44 30, 48 32" stroke="#60A5FA" stroke-width="2" fill="none" stroke-linecap="round"/>
  <path d="M38 40 Q42 38, 46 40" stroke="#60A5FA" stroke-width="2" fill="none" stroke-linecap="round"/>

  <!-- Corpus callosum (center line) -->
  <line x1="32" y1="20" x2="32" y2="48" stroke="#60A5FA" stroke-width="1.5" opacity="0.5"/>
</svg>
